<svg width="47" height="554" viewBox="0 0 47 554" fill="none" xmlns="http://www.w3.org/2000/svg">
<path d="M46.7071 546.707C47.0976 546.317 47.0976 545.683 46.7071 545.293L40.3431 538.929C39.9526 538.538 39.3195 538.538 38.9289 538.929C38.5384 539.319 38.5384 539.953 38.9289 540.343L44.5858 546L38.9289 551.657C38.5384 552.047 38.5384 552.681 38.9289 553.071C39.3195 553.462 39.9526 553.462 40.3431 553.071L46.7071 546.707ZM0 0V4.92337H2V0H0ZM0 12.8008V22.6475H2V12.8008H0ZM0 30.5249V40.3717H2V30.5249H0ZM0 48.249V58.0958H2V48.249H0ZM0 65.9732V75.8199H2V65.9732H0ZM0 83.6973V93.5441H2V83.6973H0ZM0 101.421V111.268H2V101.421H0ZM0 119.146V128.992H2V119.146H0ZM0 136.87V146.716H2V136.87H0ZM0 154.594V164.441H2V154.594H0ZM0 172.318V182.165H2V172.318H0ZM0 190.042V199.889H2V190.042H0ZM0 207.766V217.613H2V207.766H0ZM0 225.49V235.337H2V225.49H0ZM0 243.215V253.061H2V243.215H0ZM0 260.939V270.785H2V260.939H0ZM0 278.663V288.51H2V278.663H0ZM0 296.387V306.234H2V296.387H0ZM0 314.111V323.958H2V314.111H0ZM0 331.835V341.682H2V331.835H0ZM0 349.559V359.406H2V349.559H0ZM0 367.283V377.13H2V367.283H0ZM0 385.008V394.854H2V385.008H0ZM0 402.732V412.578H2V402.732H0ZM0 420.456V430.303H2V420.456H0ZM0 438.18V448.027H2V438.18H0ZM0 455.904V465.751H2V455.904H0ZM0 473.628V483.475H2V473.628H0ZM0 491.352V501.199H2V491.352H0ZM0 509.076V514H2V509.076H0ZM0 514C0 515.624 0.11739 517.221 0.344295 518.784L2.32353 518.496C2.11041 517.029 2 515.528 2 514H0ZM2.32396 526.188C3.51792 529.19 5.13964 531.976 7.11352 534.469L8.68155 533.227C6.8267 530.885 5.30351 528.268 4.18242 525.449L2.32396 526.188ZM12.5311 539.886C15.0242 541.86 17.8095 543.482 20.8122 544.676L21.5512 542.818C18.7318 541.696 16.1153 540.173 13.7726 538.318L12.5311 539.886ZM28.2165 546.656C29.7788 546.883 31.376 547 33 547V545C31.4725 545 29.9713 544.89 28.504 544.676L28.2165 546.656ZM33 547H36.6111V545H33V547ZM42.3889 547H46V545H42.3889V547Z" fill="#EAD4BB"/>
</svg>
