<svg width="1152" height="790" viewBox="0 0 1152 790" fill="none" xmlns="http://www.w3.org/2000/svg">
<path d="M1151.71 782.707C1152.1 782.317 1152.1 781.683 1151.71 781.293L1145.34 774.929C1144.95 774.538 1144.32 774.538 1143.93 774.929C1143.54 775.319 1143.54 775.953 1143.93 776.343L1149.59 782L1143.93 787.657C1143.54 788.047 1143.54 788.681 1143.93 789.071C1144.32 789.462 1144.95 789.462 1145.34 789.071L1151.71 782.707ZM0 0V4.98611H2V0H0ZM0 12.9639V22.9361H2V12.9639H0ZM0 30.9139V40.8861H2V30.9139H0ZM0 48.8639V58.8361H2V48.8639H0ZM0 66.8139V76.7861H2V66.8139H0ZM0 84.7639V94.7361H2V84.7639H0ZM0 102.714V112.686H2V102.714H0ZM0 120.664V130.636H2V120.664H0ZM0 138.614V148.586H2V138.614H0ZM0 156.564V166.536H2V156.564H0ZM0 174.514V184.486H2V174.514H0ZM0 192.464V202.436H2V192.464H0ZM0 210.414V220.386H2V210.414H0ZM0 228.364V238.336H2V228.364H0ZM0 246.314V256.286H2V246.314H0ZM0 264.264V274.236H2V264.264H0ZM0 282.214V292.186H2V282.214H0ZM0 300.164V310.136H2V300.164H0ZM0 318.114V328.086H2V318.114H0ZM0 336.064V346.036H2V336.064H0ZM0 354.014V363.986H2V354.014H0ZM0 371.964V381.936H2V371.964H0ZM0 389.914V399.886H2V389.914H0ZM0 407.864V417.836H2V407.864H0ZM0 425.814V435.786H2V425.814H0ZM0 443.764V453.736H2V443.764H0ZM0 461.714V471.686H2V461.714H0ZM0 479.664V489.636H2V479.664H0ZM0 497.614V507.586H2V497.614H0ZM0 515.564V525.536H2V515.564H0ZM0 533.514V543.486H2V533.514H0ZM0 551.464V561.436H2V551.464H0ZM0 569.414V579.386H2V569.414H0ZM0 587.364V597.336H2V587.364H0ZM0 605.314V615.286H2V605.314H0ZM0 623.264V633.236H2V623.264H0ZM0 641.214V651.186H2V641.214H0ZM0 659.164V669.136H2V659.164H0ZM0 677.114V687.086H2V677.114H0ZM0 695.064V705.036H2V695.064H0ZM0 713.014V718H2V713.014H0ZM0 718C0 719.589 0.0570613 721.166 0.16927 722.727L2.16412 722.583C2.05534 721.07 2 719.541 2 718H0ZM1.14734 730.221C1.74235 733.349 2.56142 736.397 3.58721 739.348L5.47635 738.691C4.48238 735.832 3.6887 732.878 3.11209 729.848L1.14734 730.221ZM6.4826 746.33C7.86396 749.179 9.44704 751.91 11.2132 754.508L12.867 753.383C11.1551 750.865 9.62079 748.218 8.28211 745.458L6.4826 746.33ZM15.8193 760.502C17.8815 762.886 20.1141 765.119 22.4983 767.181L23.8067 765.668C21.4954 763.669 19.3311 761.505 17.332 759.193L15.8193 760.502ZM28.4925 771.787C31.0896 773.553 33.8215 775.136 36.6696 776.517L37.5424 774.718C34.7823 773.379 32.1346 771.845 29.6172 770.133L28.4925 771.787ZM43.652 779.413C46.6033 780.439 49.6513 781.258 52.7786 781.853L53.1524 779.888C50.1219 779.311 47.1684 778.518 44.3086 777.524L43.652 779.413ZM60.2734 782.831C61.8345 782.943 63.4107 783 65 783V781C63.4585 781 61.9302 780.945 60.4168 780.836L60.2734 782.831ZM65 783H70.0278V781H65V783ZM78.0722 783H88.1278V781H78.0722V783ZM96.1722 783H106.228V781H96.1722V783ZM114.272 783H124.328V781H114.272V783ZM132.372 783H142.428V781H132.372V783ZM150.472 783H160.528V781H150.472V783ZM168.572 783H178.628V781H168.572V783ZM186.672 783H196.728V781H186.672V783ZM204.772 783H214.828V781H204.772V783ZM222.872 783H232.928V781H222.872V783ZM240.972 783H251.028V781H240.972V783ZM259.072 783H269.128V781H259.072V783ZM277.172 783H287.228V781H277.172V783ZM295.272 783H305.328V781H295.272V783ZM313.372 783H323.428V781H313.372V783ZM331.472 783H341.528V781H331.472V783ZM349.572 783H359.628V781H349.572V783ZM367.672 783H377.728V781H367.672V783ZM385.772 783H395.828V781H385.772V783ZM403.872 783H413.928V781H403.872V783ZM421.972 783H432.028V781H421.972V783ZM440.072 783H450.128V781H440.072V783ZM458.172 783H468.228V781H458.172V783ZM476.272 783H486.328V781H476.272V783ZM494.372 783H504.428V781H494.372V783ZM512.472 783H522.528V781H512.472V783ZM530.572 783H540.628V781H530.572V783ZM548.672 783H558.727V781H548.672V783ZM566.772 783H576.828V781H566.772V783ZM584.872 783H594.927V781H584.872V783ZM602.972 783H613.027V781H602.972V783ZM621.072 783H631.127V781H621.072V783ZM639.172 783H649.227V781H639.172V783ZM657.272 783H667.327V781H657.272V783ZM675.372 783H685.427V781H675.372V783ZM693.472 783H703.527V781H693.472V783ZM711.572 783H721.627V781H711.572V783ZM729.672 783H739.727V781H729.672V783ZM747.772 783H757.827V781H747.772V783ZM765.872 783H775.927V781H765.872V783ZM783.972 783H794.027V781H783.972V783ZM802.072 783H812.127V781H802.072V783ZM820.172 783H830.227V781H820.172V783ZM838.272 783H848.327V781H838.272V783ZM856.372 783H866.427V781H856.372V783ZM874.471 783H884.527V781H874.471V783ZM892.571 783H902.627V781H892.571V783ZM910.671 783H920.727V781H910.671V783ZM928.771 783H938.827V781H928.771V783ZM946.871 783H956.927V781H946.871V783ZM964.971 783H975.027V781H964.971V783ZM983.071 783H993.127V781H983.071V783ZM1001.17 783H1011.23V781H1001.17V783ZM1019.27 783H1029.33V781H1019.27V783ZM1037.37 783H1047.43V781H1037.37V783ZM1055.47 783H1065.53V781H1055.47V783ZM1073.57 783H1083.63V781H1073.57V783ZM1091.67 783H1101.73V781H1091.67V783ZM1109.77 783H1119.83V781H1109.77V783ZM1127.87 783H1137.93V781H1127.87V783ZM1145.97 783H1151V781H1145.97V783Z" fill="#EAD4BB"/>
</svg>
