<svg width="272" height="31" viewBox="0 0 272 31" fill="none" xmlns="http://www.w3.org/2000/svg">
<path fill-rule="evenodd" clip-rule="evenodd" d="M242.03 -42.1323C240.352 -42.1252 239.807 -42.2013 239.592 -42.2742C240.381 -42.2664 241.305 -42.2578 242.519 -42.246C242.572 -42.257 242.676 -42.2688 242.727 -42.2814C242.553 -42.2225 242.359 -42.1676 242.03 -42.1323ZM219.212 -45.5013C220.495 -45.4612 222.1 -45.4252 223.795 -45.3914C224.145 -45.2707 223.72 -45.1609 222.657 -45.19C223.252 -45.2534 220.768 -45.3711 219.212 -45.5013ZM230.186 -45.3569V-45.3633C231.495 -45.346 232.609 -45.3319 233.321 -45.3232C232.668 -45.3295 231.763 -45.3397 230.186 -45.3569ZM358.631 -40.7736C351.853 -40.9245 355.635 -41.341 353.421 -41.7408C349.174 -41.7855 345.807 -41.4066 342.677 -41.5679C342.468 -41.673 341.864 -41.7356 342.613 -41.821C338.045 -41.569 329.402 -42.3842 324.073 -42.0333C323.702 -42.1 323.518 -42.1562 323.432 -42.204C324.2 -41.8813 324.251 -41.5835 324.029 -41.3826C321.494 -41.4794 319.242 -41.217 318.385 -41.6324C319.932 -41.5565 320.1 -41.7022 320.856 -41.7887L318.163 -41.7377C315.909 -42.3759 321.828 -41.7719 321.927 -42.1707C316.713 -42.2155 310.574 -42.0167 306.647 -42.3259C305.947 -42.887 315.964 -42.1301 310.785 -42.812L316.873 -42.3581C312.388 -43.3867 320.586 -42.1447 316.499 -43.2149C308.457 -43.7 307.398 -43.318 299.376 -43.7885C297.493 -43.5647 299.872 -43.3315 297.989 -43.1077C286.422 -43.0244 289.27 -44.7776 280.686 -44.3882C278.43 -44.1175 277.44 -43.4763 271.517 -44.0405L273.687 -44.5662C265.869 -44.8983 269.043 -43.8687 260.924 -44.5413C262.425 -44.7287 267.116 -44.5361 265.948 -44.6464C260.728 -45.2939 262.12 -44.4309 258.035 -44.5662L257.292 -45.1232C248.935 -45.3126 239.67 -45.2054 230.412 -45.3689C230.95 -45.5126 232.563 -45.6322 230.427 -45.8561C218.72 -45.9102 205.533 -46.563 194.294 -47.1054L189.934 -46.7306C188.934 -46.7546 188.099 -46.9721 189.193 -47.0408C184.819 -47.297 188.934 -46.7546 186.804 -46.6151C184.3 -46.6286 183.531 -46.9399 185.129 -47.0471C177.332 -46.8129 162.973 -46.5662 154.834 -47.1408L156.437 -47.2626C150.078 -47.5072 149.202 -46.3933 143.325 -46.869L144.461 -46.943C130.646 -47.249 115.384 -46.8295 104.81 -47.4542C102.835 -46.7942 91.0948 -47.6415 90.265 -46.6972C82.3374 -47.0647 84.5872 -47.2449 73.4122 -47.3625C70.432 -47.3375 69.0526 -46.6879 65.398 -46.5099L65.2378 -46.9888L60.3285 -46.3527L57.5774 -46.8514L54.1544 -46.6296C55.5311 -46.64 57.109 -46.4974 56.9233 -46.3537C51.5916 -45.9997 43.7556 -46.2371 43.557 -46.4901C39.34 -46.1861 35.1331 -45.8718 30.9364 -45.5354C31.1604 -45.7479 33.2727 -45.9133 34.927 -46.105C28.2719 -45.3137 33.5476 -46.5577 27.4499 -45.8009C28.3151 -45.7343 27.0858 -45.4927 26.9764 -45.3887C23.7876 -45.5354 16.7253 -45.1211 11.5666 -44.6537L12.437 -45.0524C2.97471 -44.5027 -7.33248 -43.4231 -17.7491 -42.2571C-13.9087 -42.5268 -14.4253 -41.872 -17.4157 -41.4805L-18.9656 -41.8345C-20.714 -41.3118 -15.6673 -42.0042 -19.4314 -41.1838C-23.3124 -40.7819 -22.4344 -41.4315 -20.3169 -41.8563C-21.8566 -41.6293 -23.3633 -41.3472 -24.8853 -41.0953C-25.272 -41.2035 -24.2337 -41.4232 -24.0861 -41.646C-24.9361 -41.3681 -27.0586 -41.2317 -29.2753 -41.0381C-31.4716 -40.8122 -33.7723 -40.5384 -34.9124 -40.074L-35.3095 -40.176C-37.8697 -39.7721 -40.033 -39.3463 -42.0104 -38.9902C-43.9726 -38.6186 -45.6777 -38.2042 -47.3472 -37.844C-49.0269 -37.4953 -50.5641 -37.057 -52.2081 -36.6385C-53.0302 -36.425 -53.8675 -36.2054 -54.743 -35.9774C-55.5905 -35.7234 -56.4735 -35.4578 -57.4076 -35.1778C-57.1684 -34.978 -57.8122 -34.6844 -58.7208 -34.3242C-59.6141 -33.9536 -60.6855 -33.4549 -61.4337 -32.9624C-62.8004 -32.5585 -64.0754 -32.0713 -65.3784 -31.555C-66.035 -31.2988 -66.7018 -31.0385 -67.3737 -30.7762C-67.9769 -30.4795 -68.5826 -30.1776 -69.1985 -29.8746C-69.7991 -29.5675 -70.4557 -29.25 -71.0156 -28.9346C-71.5118 -28.6202 -72.0157 -28.3026 -72.5248 -27.9809C-73.5275 -27.3355 -74.52 -26.666 -75.4795 -25.9716C-77.7471 -23.926 -75.5024 -25.2304 -76.0903 -24.2195C-77.1286 -24.2643 -80.539 -21.3858 -79.358 -22.9974C-80.3583 -22.1239 -81.2413 -21.4254 -81.9132 -20.76C-82.5342 -20.0844 -83.0966 -19.4754 -83.6871 -18.8372C-84.2292 -18.1917 -84.9087 -17.5369 -85.4482 -16.7113C-85.9521 -15.8847 -86.5349 -14.9248 -87.2602 -13.7328C-86.484 -14.195 -85.8808 -14.7395 -85.7892 -14.4074C-86.031 -13.9775 -86.5069 -13.5142 -86.9446 -13.1727C-87.3136 -12.823 -87.698 -12.6012 -87.8939 -12.6866L-87.8684 -12.9281C-88.0466 -12.2327 -88.3266 -11.5247 -88.6752 -10.8054C-88.8635 -10.4462 -89.0519 -10.0828 -89.2453 -9.71635C-89.3802 -9.34366 -89.5125 -8.96681 -89.6449 -8.58789C-89.9248 -7.82993 -90.2455 -7.06066 -90.584 -6.28816C-90.7672 -5.50943 -90.8614 -4.71928 -91.0064 -3.93535C-91.0649 -3.54178 -91.1235 -3.15039 -91.1846 -2.76304C-91.1185 -2.3727 -91.0573 -1.98746 -90.9963 -1.60644C-90.846 -0.842295 -90.7061 -0.0895922 -90.4491 0.625619C-90.0113 1.32938 -89.5354 2.00297 -89.0086 2.6276C-88.497 3.25537 -87.9372 3.83524 -87.0668 4.30997L-87.4103 4.0903L-84.5701 6.1662C-83.654 6.85747 -82.3229 7.44463 -81.2261 8.07761C-78.5843 9.94529 -83.5216 7.13752 -81.9615 8.6325C-80.086 9.67148 -77.9659 10.4211 -76.3474 11.2352C-74.7516 12.0628 -72.9956 12.6979 -71.4126 13.3725C-69.8246 14.045 -68.2848 14.704 -66.4448 15.2391C-64.643 15.794 -62.8004 16.3801 -60.6041 16.8632C-59.3952 17.5243 -57.3109 18.2312 -54.7582 18.9578C-52.1853 19.6658 -48.9938 20.2488 -45.7973 20.9036C-42.5652 21.5188 -39.1371 22.002 -36.0476 22.5672C-32.9427 23.118 -30.0159 23.5385 -27.7636 24.0851L-28.0995 23.7416C-25.3968 23.8405 -25.2186 24.3318 -23.4193 24.6473C-23.5263 24.4141 -25.9312 24.0227 -24.2744 24.1048C-2.89399 26.5618 19.9294 28.8927 42.3838 30.1119C50.5913 30.5335 47.3694 28.8574 57.5595 29.8818L54.5259 30.2972C62.8709 30.3117 71.338 30.4294 79.7644 30.6428C88.1909 30.7376 96.5817 30.9281 104.69 30.6417C103.723 30.7594 103.69 30.9135 102.109 30.9093C105.527 31.2893 114.783 30.9499 114.832 30.6438C117.359 30.6823 115.422 30.9207 116.98 31.079C120.423 31.2758 125.584 30.5397 127.422 30.9C127.735 30.9582 126.462 31.028 125.834 31.0614C128.066 30.8645 136.263 31.0332 134.097 30.6168C140.193 30.7812 145.698 30.2618 150.566 30.4554C153.675 29.9297 160.987 30.5262 161.906 29.8047C161.555 30.521 172.614 30.1326 176.4 29.7131C175.147 29.9558 179.767 29.8588 178.309 30.1879C182.683 30.0806 186.666 29.8078 185.845 29.4747C194.044 30.0713 201.896 28.3347 206.629 29.2426C213.073 28.8189 219.275 28.4346 225.317 28.0828C231.356 27.7247 237.23 27.3759 243.02 27.0324C242.781 27.7497 230.184 27.6414 230.857 28.3556C241.832 27.5852 248.049 26.7773 259.016 26.4035C261.873 26.365 257.494 26.7836 256.57 26.9491C267.506 26.1485 277.892 26.0007 287.549 25.0742C287.542 25.1408 286.509 25.2678 285.529 25.375C287.452 25.249 290.049 25.2376 289.725 24.9315L287.876 25.1178C284.651 24.8222 295.21 23.7468 295.469 23.4834C292.514 24.588 305.179 23.1335 300.394 24.5931C301.641 24.4568 303.176 24.2121 302.812 24.0175C304.71 23.9664 305.354 24.0538 303.532 24.4099C310.365 23.8238 307.792 23.6333 314.038 23.2658C314.074 23.421 312.837 23.5551 312.257 23.7748C315.313 23.295 318.362 22.7817 323.673 22.5568C323.396 22.6703 324.052 22.7494 322.48 22.8514C326.995 22.5266 330.765 22.0696 334.657 21.6469C338.544 21.2023 342.542 20.7807 347.547 20.5569C344.931 21.4366 351.009 20.5247 351.8 21.0576C353.552 20.8755 355.289 20.6621 357.03 20.4611L354.77 20.3591C359.42 19.9843 363.311 19.2285 367.393 19.0848L364.064 19.6054C366.943 19.3232 369.834 19.0682 372.697 18.7548C371.025 18.8381 369.35 18.9089 367.674 18.9682C372.206 18.277 366.806 18.3082 373.027 17.9074C371.814 18.0802 377.645 17.491 380.235 17.6044L380.22 17.6065C382.399 17.2057 384.654 16.833 388.117 16.6144C389.107 16.706 387.776 17.314 388.422 17.3754C390.382 16.6685 399.122 16.1542 401.629 15.3422C400.764 15.566 400.905 15.8679 401.252 15.8929L402.875 15.2985C405.07 15.1808 405.42 15.2048 405.232 15.4796C411.645 14.8279 402.731 14.9955 410.487 14.4469C409.917 14.5447 410.241 14.5697 409.045 14.7675C410.968 14.5926 412.836 14.3875 414.666 14.1647C416.471 13.9118 418.255 13.6619 420.015 13.4152C423.525 12.9019 426.987 12.4428 430.47 12.0347C432.955 12.3148 424.579 13.0008 427.274 13.1507C437.141 11.6797 447.212 9.62151 456.565 8.037L454.765 8.28166C455.007 7.78819 456.829 7.57998 459.142 7.34364C461.426 7.07713 464.192 6.75545 466.289 6.12456C465.228 6.40356 465.302 6.8304 465.51 6.68777C471.909 5.54467 478.077 3.84044 486.28 1.08577L485.524 1.57716C487.312 1.14095 489.636 0.542333 491.715 -0.232221C492.782 -0.604925 493.858 -0.979708 494.882 -1.3368C495.844 -1.72928 496.76 -2.10198 497.571 -2.432C498.149 -2.97235 499.91 -3.74474 498.299 -3.45951C503.919 -5.23666 507.215 -8.03197 507.602 -10.8043C508.06 -13.6162 505.816 -16.1054 503.701 -18.5718C504.406 -18.02 505.776 -17.3203 505.222 -17.769L503.857 -18.7487C503.387 -19.0693 502.789 -19.3494 502.262 -19.6492L500.628 -20.531C500.076 -20.8214 499.42 -21.0682 498.819 -21.3379C498.641 -20.8299 499.439 -20.8038 500.104 -19.8762C499.025 -20.2333 496.678 -20.9714 495.059 -21.7678C498.48 -20.48 496.2 -22.2145 494.935 -22.8995C494.991 -22.7246 494.278 -22.8339 494.212 -22.7047C491.27 -24.689 492.5 -22.4945 487.502 -24.7047L488.091 -24.7536C485.83 -25.4084 483.373 -25.7635 481.078 -26.5203C480.686 -27.1491 483.719 -25.9842 484.371 -26.2164C480.963 -27.1866 476.608 -27.5229 474.161 -28.7534C475.751 -28.4297 477.802 -27.829 479.396 -27.5031C476.779 -28.8752 476.211 -28.8877 473.86 -29.6758L474.085 -29.5956C472.305 -30.2255 470.467 -30.822 468.603 -31.407L469.912 -30.8928C464.082 -31.151 460.873 -33.1425 454.034 -34.066C460.644 -33.155 455.511 -34.1617 456.565 -34.447C455.21 -34.9373 453.075 -35.6421 453.907 -35.5901C450.589 -35.969 449.553 -37.0257 444.86 -37.5401C444.883 -37.7254 441.831 -38.2938 442.939 -38.4656C439.017 -39.2203 443.509 -38.0335 442.954 -37.9419C439.732 -38.376 436.525 -39.2848 432.947 -40.2499C429.415 -41.241 425.29 -42.1311 420.663 -42.71C416.853 -43.3575 414.354 -43.5273 412.03 -43.7636C409.665 -43.9655 407.457 -44.2258 403.804 -44.6745C401.654 -45.2918 406.281 -44.864 406.281 -44.864C402.641 -45.702 399.7 -46.1549 395.907 -46.5745C396.768 -46.5911 396.096 -46.8077 395.111 -47.1314C392.103 -47.5249 392.668 -46.8972 388.939 -47.6749C389.745 -47.7394 390.822 -47.8706 392.4 -47.8227C390.581 -48.007 388.764 -48.1736 386.91 -48.3078C385.046 -48.4307 383.172 -48.5556 381.289 -48.72C380.493 -49.096 383.788 -48.8274 385.224 -48.8294C383.094 -49.022 380.385 -49.3354 377.958 -49.4853C375.532 -49.6424 373.458 -49.7226 372.697 -49.5873L375.283 -49.1563C373.753 -49.2989 374.718 -49.5894 375.894 -49.5446C379.716 -49.4946 380.96 -48.818 381.05 -48.6493C380.154 -48.7221 379.273 -48.8148 378.365 -48.8732C380.451 -47.7081 388.937 -47.7238 394.083 -46.8763L391.39 -46.5755C393.289 -46.4839 395.225 -46.4193 397.124 -46.3007C398.089 -45.9591 398.518 -45.4969 395.936 -45.8186C399.274 -44.9223 399.356 -45.5043 402.145 -44.6589C402.435 -44.5506 402.252 -44.5475 401.908 -44.5755L405.629 -44.1707C404.807 -44.1602 405.779 -43.6521 403.7 -44.0957C409.607 -42.66 414.254 -42.6955 416.107 -41.8282L415.547 -41.8886C424.289 -40.3655 416.868 -42.1582 423.876 -41.3493L426.852 -39.4191L428.226 -39.6701C429.081 -39.4723 430.725 -39.0464 430.194 -38.9527C433.764 -38.5145 429.89 -39.2589 432.1 -39.109C435.718 -37.7909 443.769 -36.703 443.684 -35.7837C445.586 -35.7348 440.17 -36.9862 444.799 -36.1294C445.003 -35.1227 449.958 -35.0092 453.172 -33.7704C451.492 -33.6943 448.301 -34.751 451.495 -33.5163C454.684 -33.5944 458.344 -31.531 461.547 -30.8314C462.42 -31.2426 468.544 -29.2969 473.692 -27.9538C473.402 -27.9216 475.626 -27.173 478.457 -26.2434C481.279 -25.3116 484.794 -24.2143 486.702 -23.4055L486.427 -23.3721C488.173 -23.5637 492.448 -21.9594 495.348 -20.7362C494.574 -20.5488 493.955 -20.7257 492.093 -21.2463C493.075 -20.9006 493.807 -20.4779 494.668 -20.0949C495.576 -19.9303 496.671 -19.6544 498.147 -18.8361L496.754 -18.908C497.457 -18.4905 498.267 -18.0959 499.048 -17.6816C499.724 -17.2413 500.412 -16.7936 501.125 -16.3293C501.759 -15.8493 502.183 -15.3153 502.69 -14.7625C503.082 -14.1993 503.14 -13.5808 503.262 -12.9489C503.779 -12.8885 504.25 -13.4247 504.805 -13.6672C505.082 -13.7839 505.379 -13.8223 505.726 -13.6412C506.062 -13.4601 506.559 -13.0624 506.612 -12.2878C506.08 -12.1691 505.168 -12.0786 504.982 -12.8282C505.044 -12.5867 505.387 -11.939 505.149 -11.4384L504.301 -12.5898C503.807 -11.3884 505.141 -11.9454 504.782 -10.9594C504.041 -11.0156 503.912 -10.2806 503.387 -10.4628C503.387 -10.7034 504.199 -11.2603 503.804 -11.6392C503.481 -10.5711 502.293 -9.35716 501.288 -9.06777C501.769 -9.09489 502.247 -8.93554 501.662 -8.17354C499.458 -6.32566 500.061 -7.71235 498.381 -6.75974C498.312 -6.20693 495.806 -5.32205 496.694 -5.00035C495.81 -4.50789 495.23 -4.55993 494.589 -4.47558C494.233 -4.24655 493.53 -3.90097 492.726 -3.51789C491.945 -3.12639 491.008 -2.71516 490.102 -2.38516C488.372 -1.70013 487.213 -1.17023 488.743 -1.39301L489.321 -1.55542C489.232 -1.51586 489.127 -1.46902 489.018 -1.42008C482.882 1.32522 473.517 2.77648 465.895 4.61397L465.734 4.47342C463.436 5.02726 460.797 5.58007 458.344 6.11727C455.847 6.61594 453.521 7.08755 451.925 7.55187C450.467 7.80692 448.232 7.89438 448.685 7.61538C444.997 8.33163 444.7 8.55337 438.979 9.18114C442.58 8.3285 437.455 9.16448 442.732 8.3816C437.681 9.04476 436.355 8.96668 431.3 10.1139C432.812 9.47785 427.15 10.1827 424.841 10.6064C426.101 10.5543 427.327 10.4637 428.579 10.3929C425.953 10.8375 423.538 11.0853 421.108 11.3601L422.029 10.7011C416.627 11.0519 412.175 11.9077 407.892 12.5927C403.626 13.2934 399.639 13.9399 395.292 13.8181C392.721 14.4552 401.173 13.4818 398.94 14.147C394.032 14.576 388.542 14.3688 387.028 14.5218C380.225 14.9018 381.225 15.8471 374.12 16.3104C375.115 16.4083 376.227 16.8132 371.07 17.467C366.124 17.8356 364.637 17.2151 367.663 16.8184C368.837 16.707 369.432 16.7143 369.414 16.7789C370.959 16.5675 372.987 16.3 370.948 16.2802L370.412 16.5207C367.892 16.5613 361.14 17.1235 362.578 16.6998C358.96 17.1797 361.143 17.1287 363.937 16.9954C357.504 17.239 354.114 17.8376 347.512 18.1271C348.594 18.151 349.645 18.2936 348.614 18.3686C338.961 18.8558 344.564 19.0276 338.121 19.5918C334.319 19.5825 339.156 18.8392 332.73 19.5377C328.659 19.6168 331.685 19.1098 333.207 18.8548C327.402 19.6054 321.996 19.368 318.579 19.5304L321.65 19.1733C319.812 19.3857 318.281 19.4867 316.717 19.5908L318.647 19.8365C316.784 19.8958 315.227 19.9989 315.204 19.8438C313.394 20.205 316.89 20.3675 313.236 20.9233C310.704 20.886 305.808 21.574 304.78 21.1389C312.584 20.8391 303.75 20.7016 310.269 20.229C309.029 20.3633 307.49 20.4539 305.614 20.5007C305.316 20.4632 305.838 20.3841 306.332 20.3258C298.779 20.3352 303.13 21.0806 295.444 21.5292C296.328 21.2003 293.489 21.1149 292.252 21.2357C295.353 21.0744 293.892 21.6146 291.115 21.9769C286.107 22.0269 285.801 22.4236 283.207 22.537L286.188 22.4798C285.28 22.8077 282.795 22.9045 279.38 23.1752C279.017 22.9774 282.462 22.8597 281.2 22.8317C277.527 23.5219 272.41 22.8004 267.169 23.3688C264.642 23.3001 266.778 22.8628 264.568 22.84C258.692 23.4813 257.99 22.7702 251.787 23.3646C253.697 23.6457 253.994 23.5489 249.66 24.1081L259.929 23.3626L253.439 24.2163C256.564 24.0726 259.964 23.6708 261.851 23.6436C258.774 24.0965 259.071 23.9893 260.652 24.2246C256.224 23.8644 252.27 24.971 247.219 24.7909L247.13 23.8675C239.594 23.7634 234.047 24.9076 224.332 25.0512L227.473 25.096C226.264 25.5124 221.517 25.3646 218.42 25.6269C218.644 25.3084 216.664 25.2678 215.287 25.1252C215.499 25.3468 208.218 25.3605 207.464 26.0059L203.066 25.7581C195.23 25.8237 194.32 26.8981 186.78 27.0168C188.988 26.6149 185.539 26.4983 190.527 26.11C188.017 26.1819 185.758 26.1923 185.752 26.4066C184.259 26.2588 178.866 27.0313 176.512 26.7783C175.474 26.9376 175.176 27.2687 172.354 27.3062C172.038 27.2521 172.344 27.1542 172.344 27.1542C172.354 27.3062 167.955 27.4613 170.467 27.7466C166.53 27.3468 161.135 27.5112 155.854 27.632C150.576 27.7466 145.42 27.8766 142.017 27.5143C136.548 27.7257 129.947 27.8329 124.969 27.9017C125.284 27.807 124.978 27.7476 125.921 27.7736C119.049 27.5228 121.724 28.7148 113.89 28.3973C109.894 27.8913 118.041 28.1349 115.549 27.9413C114.46 26.9252 106.123 28.063 100.875 27.4623L102.148 27.4051C98.1495 27.0761 92.3469 27.7143 85.7884 27.5727C85.7884 27.5727 86.1142 27.4863 85.8393 27.4196C81.3119 27.9183 72.804 27.8923 66.4669 27.8944C68.4877 27.5415 69.3631 27.7476 68.2255 27.3186C65.3904 27.3135 68.961 27.9829 63.2933 27.9714C61.4889 27.7195 57.4628 27.3738 57.0072 26.9325L62.311 27.0875C59.6921 26.441 55.4497 26.8763 52.6757 26.6856L53.0829 26.4545C44.9516 26.2756 44.6997 26.8491 35.9958 26.4004L36.8433 26.6253C31.9009 26.9907 32.9445 26.1339 28.0733 26.2922L26.8542 25.5937C23.6985 25.5375 15.6818 25.5561 10.0701 25.1855C11.7549 25.0794 14.2388 25.1116 16.8296 25.1408C19.428 25.1491 22.1231 25.1866 24.1897 25.1762C22.65 25.0794 20.0236 24.9304 17.5702 24.8295C15.1117 24.7295 12.8518 24.6139 11.9814 24.7108C13.2437 24.7482 14.8649 24.7202 16.0432 24.9096C12.0934 25.0815 6.97797 24.969 0.877646 24.4213C1.72257 23.8894 -2.17379 23.4345 -6.76237 22.9461C-11.3689 22.4798 -16.5224 21.7677 -18.3523 21.0951C-29.0412 20.1519 -38.651 18.0656 -49.457 15.6108C-48.1081 16.4613 -48.9225 16.301 -50.1035 16.0126C-51.2742 15.7211 -52.8393 15.3328 -53.132 15.8221C-55.705 15.2308 -56.6441 14.9716 -56.7764 14.8633C-58.9855 14.0294 -60.9374 13.0924 -62.976 12.2356C-64.1696 11.509 -60.4768 12.7562 -60.3623 12.523C-61.5686 12.117 -62.271 11.8598 -62.6605 11.6703C-63.0141 11.4663 -63.1083 11.3518 -63.1439 11.2508C-63.2178 11.0509 -63.0702 10.9041 -64.2918 10.2472C-64.2867 10.4866 -64.8695 10.4252 -65.7525 10.167C-66.6127 9.90364 -67.8878 9.47993 -68.7785 8.86778C-68.1041 9.49971 -67.0912 10.0411 -66.1623 10.6199C-67.9616 10.1025 -69.117 9.66524 -69.7609 9.22591C-70.4608 8.80323 -70.8604 8.4451 -71.2548 8.0901C-71.6136 7.72677 -72.1124 7.40299 -72.6546 6.95429C-73.1992 6.50663 -74.0085 5.99442 -75.398 5.32293L-73.362 6.09124C-73.9983 5.73936 -74.9145 5.23236 -75.8078 4.61604C-76.5484 3.97058 -77.3883 3.24184 -78.2841 2.51933C-79.666 1.01291 -81.1548 -0.500814 -82.2161 -1.33993C-82.0633 -1.67827 -81.5748 -2.12281 -81.1345 -1.35762C-81.2846 -1.88648 -81.4831 -2.42577 -81.7198 -2.97547C-81.8038 -3.53554 -81.8903 -4.10601 -81.9794 -4.6797C-82.0227 -5.25639 -82.3229 -5.83631 -82.2034 -6.42351C-82.1524 -7.01277 -82.1015 -7.59985 -82.0557 -8.17977C-82.1066 -9.34781 -81.4093 -10.4733 -80.9869 -11.5258C-80.5975 -12.5834 -79.6227 -13.5174 -78.7447 -14.3137L-78.4495 -13.9213C-77.9557 -14.7239 -78.4953 -15.4548 -76.9963 -16.3521C-76.8258 -16.2679 -76.7774 -15.9587 -76.3829 -16.3125C-76.159 -16.7457 -75.2377 -18.526 -73.9016 -19.5056L-74.1943 -18.5207C-73.0897 -19.5129 -71.8987 -20.3613 -71.0588 -21.191C-70.163 -22.0114 -69.5395 -22.8048 -68.8015 -23.5595C-68.0481 -24.3142 -67.3152 -25.0492 -66.5517 -25.8124C-65.7474 -26.5567 -64.9687 -27.4105 -63.7369 -28.11C-63.3934 -28.0101 -62.8131 -28.0954 -62.1184 -28.2891C-61.7697 -28.3859 -61.3904 -28.5108 -60.9986 -28.6556C-60.5532 -28.7877 -60.062 -28.9325 -59.5784 -29.0917C-58.5656 -29.3968 -57.6672 -29.7934 -56.5778 -30.0995C-55.5344 -30.417 -54.5393 -30.7199 -53.7454 -30.9626L-53.6969 -30.8501C-52.6128 -31.2416 -51.3505 -31.5455 -50.274 -31.8954C-49.7217 -32.0661 -49.1771 -32.2337 -48.6401 -32.4003C-48.0674 -32.5533 -47.505 -32.7033 -46.9452 -32.8532C-45.8381 -33.1612 -44.7615 -33.4611 -43.6951 -33.7578C-42.5805 -34.0368 -41.4861 -34.3116 -40.3943 -34.5854C-36.0246 -35.6931 -31.4589 -36.6645 -26.0559 -37.5994C-24.1701 -37.6483 -21.7549 -37.843 -19.0114 -38.1261C-16.2323 -38.3667 -13.1223 -38.7029 -9.84948 -39.0163C-3.28848 -39.6295 3.8629 -40.2552 9.76472 -40.4405C7.93742 -40.4374 9.8258 -40.988 11.8694 -41.2035C14.6409 -41.2806 19.2829 -42.151 19.0692 -41.5107L18.0894 -41.4639C20.3748 -40.989 25.9432 -41.4784 30.3739 -41.672L30.8601 -42.5278C42.7375 -41.9417 61.2904 -44.1446 67.8667 -43.1951C70.656 -43.4585 74.1478 -43.5522 76.9268 -43.7968L76.825 -43.3524C84.6534 -43.3783 88.5548 -43.3773 98.2232 -43.5793L96.2687 -43.245C101.718 -43.2628 103.099 -44.5683 108.149 -44.6298L109.686 -43.9759C119.23 -44.0144 128.862 -43.4388 138.304 -43.9728C138.146 -43.877 137.859 -43.6875 136.314 -43.6689C140.803 -43.6407 153.65 -43.0931 152.075 -44.0103C152.151 -43.4293 161.912 -43.8469 167.096 -44.0374L166.256 -43.6125C170.651 -44.1123 170.807 -44.2539 176.899 -44.3143C178.337 -44.2352 178.125 -43.9468 176.224 -44.0873C181.001 -43.7854 180.009 -44.4434 185.804 -44.1029L183.605 -43.8645C188.54 -43.7396 188.163 -43.8958 190.922 -44.1686C194.047 -44.2872 200.277 -43.8625 200.952 -43.4554C201.649 -43.6782 204.397 -43.9489 207.289 -43.7625C207.663 -43.6042 206.591 -43.5377 206.052 -43.5054C214.259 -43.0129 218.399 -43.7178 224.009 -43.1368C224.103 -42.99 224.462 -42.9088 224.925 -42.8526C218.374 -43.041 213.101 -43.1909 213.597 -43.2097C213.542 -42.8089 218.823 -42.6111 214.529 -42.1593C218.817 -42.3602 226.185 -42.8214 231.313 -42.4914C231.558 -42.4445 231.794 -42.3997 231.972 -42.3332L231.43 -42.3029C232.614 -42.229 233.685 -42.2363 234.701 -42.2748C236.335 -42.1613 237.37 -42.0822 238.948 -42.0312C239.503 -41.6856 244.979 -41.673 247.611 -41.5731C247.476 -42.0187 250.917 -41.8407 247.749 -42.3019C248.16 -42.2582 247.24 -42.2654 245.481 -42.3019C245.084 -42.3009 244.614 -42.3092 244.352 -42.2915C244.402 -42.3008 244.468 -42.3123 244.537 -42.3237C242.803 -42.3674 240.544 -42.4248 237.973 -42.4893C240.096 -42.6517 242.31 -42.7776 245.184 -42.4414C246.588 -42.6819 248.13 -42.9245 248.998 -43.0348C252.498 -42.3164 259.387 -41.7564 260.283 -41.3482C268.378 -41.3327 279.266 -40.858 284.505 -41.4909C286.819 -41.5117 287.087 -41.1577 287.91 -40.9975C286.572 -40.9641 285.005 -41.0338 284.264 -40.9422C288.885 -40.9902 297.831 -40.5102 299.055 -41.0433C304.759 -40.5602 295.693 -40.6435 303.634 -40.4238L302.522 -40.2915C317.863 -38.756 328.213 -40.7185 345.161 -38.7664C343.982 -38.8913 343.397 -38.9517 343.177 -39.059C362.696 -37.6545 383.834 -37.6317 402.944 -35.788C408.399 -35.333 409.106 -35.662 412.557 -35.7598L413.598 -35.2288L419.512 -35.4537C427.788 -35.4017 433.222 -33.5277 443.766 -33.6787L442.547 -34.0691C446.224 -33.7984 454.323 -33.5683 453.576 -33.2435C453.973 -33.2779 454.902 -33.4976 456.29 -33.2477L456.315 -32.9979L465.54 -32.8667C472.504 -32.2566 464.088 -31.9683 474.315 -31.2822C478.161 -31.1385 485.425 -31.2957 484.057 -31.5507C482.533 -31.6642 480.194 -31.9578 480.175 -32.2098L483.709 -32.1099C484.623 -32.7834 487.605 -33.3498 479.21 -34.4053L473.064 -34.3429L471.267 -34.8113L476.31 -34.5178C473.578 -35.0259 471.654 -34.8489 469.557 -34.775C469.144 -34.9904 468.356 -35.1716 467.193 -35.3132L461.067 -34.9842C460.458 -35.309 463.904 -35.384 460.018 -35.7764C457.152 -35.6234 462.429 -34.9873 457.802 -35.0519C455.055 -35.5495 455.984 -35.766 452.529 -35.6869C452.121 -35.9004 452.877 -35.9754 454.236 -35.9774C451.167 -35.9337 446.285 -36.3501 444.605 -36.0565C441.761 -36.6354 434.469 -36.5323 434.996 -37.1954C434 -37.0872 429.544 -36.9591 426.785 -37.083C432.081 -37.6222 416.504 -37.7024 418.12 -38.5009C414.162 -37.9721 404.57 -38.8997 397.849 -38.8362C398.235 -38.8758 398.997 -38.9559 399.565 -38.8872C395.875 -39.1432 394.864 -39.417 392.523 -39.6805C391.856 -39.0985 386.036 -39.2557 382.803 -39.036C378.431 -39.8502 385.781 -39.6108 384.523 -40.2447C384.603 -39.7408 376.466 -40.151 377.894 -39.6618C374.517 -40.1958 374.944 -39.9855 373.3 -40.5769C372.465 -39.8471 370.019 -40.6091 366.994 -40.2801C362.061 -40.8954 365.902 -41.0547 360.298 -41.088C357.727 -41.4461 362.73 -41.4794 362.73 -41.4794C357.092 -41.7615 359.921 -41.0454 358.631 -40.7736Z" fill="#FFBB00"/>
</svg>
