<svg width="568" height="513" viewBox="0 0 568 513" fill="none" xmlns="http://www.w3.org/2000/svg">
<path d="M1 89L37 240" stroke="#EAD4BB" stroke-width="2" stroke-linecap="round" stroke-dasharray="10 8"/>
<path d="M80 40.7733L235.172 45.0817" stroke="#EAD4BB" stroke-width="2" stroke-linecap="round" stroke-dasharray="10 8"/>
<path d="M316 45.2222L514.5 75.5" stroke="#EAD4BB" stroke-width="2" stroke-linecap="round" stroke-dasharray="10 8"/>
<path d="M429.307 258.084L532.777 85.9999" stroke="#EAD4BB" stroke-width="2" stroke-linecap="round" stroke-dasharray="10 8"/>
<path d="M99.5122 232.106L236.183 84.9999" stroke="#EAD4BB" stroke-width="2" stroke-linecap="round" stroke-dasharray="10 8"/>
<path d="M400.183 232.106L263.512 84.9999" stroke="#EAD4BB" stroke-width="2" stroke-linecap="round" stroke-dasharray="10 8"/>
<path d="M105 269.865L338 269.865" stroke="#EAD4BB" stroke-width="2" stroke-linecap="round" stroke-dasharray="10 8"/>
<path d="M248 279C248 278.448 247.552 278 247 278C246.448 278 246 278.448 246 279L248 279ZM246.293 512.707C246.683 513.098 247.317 513.098 247.707 512.707L254.071 506.343C254.462 505.953 254.462 505.319 254.071 504.929C253.681 504.538 253.047 504.538 252.657 504.929L247 510.586L241.343 504.929C240.953 504.538 240.319 504.538 239.929 504.929C239.538 505.319 239.538 505.953 239.929 506.343L246.293 512.707ZM246 283.979C246 284.531 246.448 284.979 247 284.979C247.552 284.979 248 284.531 248 283.979L246 283.979ZM248 291.944C248 291.392 247.552 290.944 247 290.944C246.448 290.944 246 291.392 246 291.944L248 291.944ZM246 301.902C246 302.454 246.448 302.902 247 302.902C247.552 302.902 248 302.454 248 301.902L246 301.902ZM248 309.868C248 309.315 247.552 308.868 247 308.868C246.448 308.868 246 309.315 246 309.868L248 309.868ZM246 319.825C246 320.377 246.448 320.825 247 320.825C247.552 320.825 248 320.377 248 319.825L246 319.825ZM248 327.791C248 327.238 247.552 326.791 247 326.791C246.448 326.791 246 327.238 246 327.791L248 327.791ZM246 337.748C246 338.3 246.448 338.748 247 338.748C247.552 338.748 248 338.3 248 337.748L246 337.748ZM248 345.714C248 345.161 247.552 344.714 247 344.714C246.448 344.714 246 345.161 246 345.714L248 345.714ZM246 355.671C246 356.223 246.448 356.671 247 356.671C247.552 356.671 248 356.223 248 355.671L246 355.671ZM248 363.637C248 363.084 247.552 362.637 247 362.637C246.448 362.637 246 363.084 246 363.637L248 363.637ZM246 373.594C246 374.146 246.448 374.594 247 374.594C247.552 374.594 248 374.146 248 373.594L246 373.594ZM248 381.56C248 381.008 247.552 380.56 247 380.56C246.448 380.56 246 381.008 246 381.56L248 381.56ZM246 391.517C246 392.069 246.448 392.517 247 392.517C247.552 392.517 248 392.069 248 391.517L246 391.517ZM248 399.483C248 398.931 247.552 398.483 247 398.483C246.448 398.483 246 398.931 246 399.483L248 399.483ZM246 409.44C246 409.992 246.448 410.44 247 410.44C247.552 410.44 248 409.992 248 409.44L246 409.44ZM248 417.406C248 416.854 247.552 416.406 247 416.406C246.448 416.406 246 416.854 246 417.406L248 417.406ZM246 427.363C246 427.916 246.448 428.363 247 428.363C247.552 428.363 248 427.916 248 427.363L246 427.363ZM248 435.329C248 434.777 247.552 434.329 247 434.329C246.448 434.329 246 434.777 246 435.329L248 435.329ZM246 445.286C246 445.839 246.448 446.286 247 446.286C247.552 446.286 248 445.839 248 445.286L246 445.286ZM248 453.252C248 452.7 247.552 452.252 247 452.252C246.448 452.252 246 452.7 246 453.252L248 453.252ZM246 463.209C246 463.762 246.448 464.209 247 464.209C247.552 464.209 248 463.762 248 463.209L246 463.209ZM248 471.175C248 470.623 247.552 470.175 247 470.175C246.448 470.175 246 470.623 246 471.175L248 471.175ZM246 481.132C246 481.685 246.448 482.132 247 482.132C247.552 482.132 248 481.685 248 481.132L246 481.132ZM248 489.098C248 488.546 247.552 488.098 247 488.098C246.448 488.098 246 488.546 246 489.098L248 489.098ZM246 499.056C246 499.608 246.448 500.056 247 500.056C247.552 500.056 248 499.608 248 499.056L246 499.056ZM248 507.021C248 506.469 247.552 506.021 247 506.021C246.448 506.021 246 506.469 246 507.021L248 507.021ZM246 279L246 283.979L248 283.979L248 279L246 279ZM246 291.944L246 301.902L248 301.902L248 291.944L246 291.944ZM246 309.868L246 319.825L248 319.825L248 309.868L246 309.868ZM246 327.791L246 337.748L248 337.748L248 327.791L246 327.791ZM246 345.714L246 355.671L248 355.671L248 345.714L246 345.714ZM246 363.637L246 373.594L248 373.594L248 363.637L246 363.637ZM246 381.56L246 391.517L248 391.517L248 381.56L246 381.56ZM246 399.483L246 409.44L248 409.44L248 399.483L246 399.483ZM246 417.406L246 427.363L248 427.363L248 417.406L246 417.406ZM246 435.329L246 445.286L248 445.286L248 435.329L246 435.329ZM246 453.252L246 463.209L248 463.209L248 453.252L246 453.252ZM246 471.175L246 481.132L248 481.132L248 471.175L246 471.175ZM246 489.098L246 499.056L248 499.056L248 489.098L246 489.098ZM246 507.021L246 512L248 512L248 507.021L246 507.021Z" fill="#EAD4BB"/>
</svg>
