<svg width="1264" height="296" viewBox="0 0 1264 296" fill="none" xmlns="http://www.w3.org/2000/svg">
<path d="M1 167.216H2H1ZM829.74 239.708C830.022 239.233 829.865 238.619 829.391 238.337L821.653 233.741C821.178 233.459 820.565 233.615 820.282 234.09C820 234.565 820.157 235.178 820.631 235.46L827.509 239.546L823.424 246.424C823.141 246.899 823.298 247.512 823.773 247.795C824.247 248.077 824.861 247.92 825.143 247.445L829.74 239.708ZM1262.21 69.249L1263.2 69.1179L1262.21 69.249ZM1238.44 111.884L1238.92 112.762L1238.44 111.884ZM828.633 238.228C827.014 238.64 825.397 239.05 823.782 239.457L824.271 241.396C825.888 240.989 827.506 240.579 829.127 240.166L828.633 238.228ZM816.04 241.391C812.819 242.189 809.605 242.977 806.398 243.754L806.869 245.698C810.08 244.92 813.297 244.131 816.521 243.333L816.04 241.391ZM798.712 245.6C795.515 246.362 792.325 247.113 789.141 247.854L789.595 249.802C792.782 249.06 795.975 248.308 799.176 247.546L798.712 245.6ZM781.463 249.625C778.209 250.369 774.962 251.102 771.722 251.825L772.158 253.777C775.401 253.053 778.651 252.319 781.908 251.575L781.463 249.625ZM763.96 253.54C760.732 254.246 757.511 254.942 754.297 255.628L754.714 257.584C757.932 256.897 761.156 256.2 764.388 255.493L763.96 253.54ZM746.597 257.254C743.375 257.927 740.161 258.59 736.954 259.243L737.353 261.203C740.563 260.549 743.781 259.886 747.007 259.211L746.597 257.254ZM729.118 260.822C725.859 261.471 722.608 262.109 719.365 262.737L719.746 264.701C722.992 264.072 726.247 263.433 729.509 262.783L729.118 260.822ZM711.597 264.225C708.367 264.836 705.144 265.437 701.93 266.028L702.291 267.995C705.509 267.404 708.735 266.802 711.969 266.19L711.597 264.225ZM694.185 267.434C690.897 268.024 687.618 268.602 684.347 269.171L684.689 271.141C687.964 270.572 691.247 269.993 694.538 269.403L694.185 267.434ZM676.513 270.514C673.256 271.065 670.007 271.605 666.767 272.135L667.09 274.109C670.334 273.579 673.586 273.038 676.847 272.486L676.513 270.514ZM659.008 273.387C655.743 273.907 652.488 274.415 649.241 274.913L649.544 276.89C652.795 276.392 656.054 275.882 659.323 275.362L659.008 273.387ZM641.345 276.106C638.063 276.595 634.79 277.072 631.526 277.539L631.809 279.519C635.077 279.052 638.353 278.574 641.64 278.085L641.345 276.106ZM623.712 278.639C620.464 279.088 617.225 279.527 613.995 279.956L614.258 281.938C617.491 281.51 620.734 281.07 623.986 280.62L623.712 278.639ZM606.095 280.985C602.789 281.408 599.494 281.82 596.208 282.221L596.451 284.207C599.74 283.805 603.039 283.393 606.349 282.969L606.095 280.985ZM588.344 283.162C585.075 283.546 581.817 283.918 578.569 284.28L578.79 286.268C582.042 285.906 585.304 285.533 588.577 285.149L588.344 283.162ZM570.764 285.131C567.437 285.486 564.121 285.829 560.817 286.161L561.017 288.151C564.326 287.819 567.645 287.475 570.976 287.12L570.764 285.131ZM552.907 286.937C549.621 287.252 546.346 287.555 543.082 287.847L543.26 289.839C546.528 289.547 549.807 289.243 553.098 288.928L552.907 286.937ZM535.271 288.527C531.954 288.808 528.649 289.078 525.356 289.336L525.512 291.33C528.809 291.071 532.119 290.802 535.44 290.52L535.271 288.527ZM517.409 289.939C514.107 290.181 510.818 290.412 507.542 290.632L507.676 292.627C510.956 292.407 514.25 292.176 517.555 291.934L517.409 289.939ZM499.702 291.137C496.399 291.342 493.109 291.535 489.832 291.717L489.943 293.714C493.224 293.532 496.519 293.338 499.826 293.133L499.702 291.137ZM481.855 292.139C478.543 292.306 475.244 292.461 471.958 292.605L472.046 294.603C475.335 294.459 478.639 294.304 481.956 294.137L481.855 292.139ZM464.1 292.928C460.804 293.054 457.522 293.17 454.254 293.273L454.318 295.272C457.59 295.168 460.876 295.053 464.177 294.926L464.1 292.928ZM446.258 293.506C442.938 293.593 439.633 293.669 436.344 293.732L436.383 295.732C439.677 295.668 442.986 295.592 446.31 295.505L446.258 293.506ZM428.478 293.864C425.181 293.91 421.9 293.944 418.635 293.966L418.649 295.966C421.919 295.944 425.204 295.909 428.505 295.863L428.478 293.864ZM410.631 293.999C407.31 294.003 404.005 293.995 400.717 293.975L400.705 295.975C403.998 295.995 407.308 296.003 410.634 295.999L410.631 293.999ZM392.857 293.905C389.552 293.866 386.263 293.815 382.992 293.752L382.954 295.751C386.23 295.814 389.523 295.866 392.834 295.905L392.857 293.905ZM374.998 293.574C371.681 293.49 368.383 293.394 365.103 293.286L365.037 295.285C368.322 295.393 371.625 295.489 374.947 295.573L374.998 293.574ZM357.268 293.004C353.944 292.874 350.639 292.731 347.354 292.577L347.26 294.575C350.55 294.729 353.86 294.872 357.189 295.002L357.268 293.004ZM339.387 292.176C336.084 292 332.801 291.811 329.539 291.609L329.416 293.606C332.683 293.807 335.972 293.997 339.28 294.174L339.387 292.176ZM321.749 291.103C318.396 290.875 315.066 290.633 311.759 290.379L311.606 292.373C314.919 292.627 318.255 292.87 321.613 293.099L321.749 291.103ZM303.844 289.743C300.565 289.467 297.308 289.18 294.075 288.88L293.89 290.872C297.13 291.172 300.392 291.46 303.677 291.736L303.844 289.743ZM286.189 288.121C282.855 287.787 279.547 287.441 276.264 287.082L276.047 289.07C279.336 289.43 282.65 289.777 285.99 290.111L286.189 288.121ZM268.434 286.195C265.161 285.812 261.913 285.416 258.692 285.008L258.441 286.992C261.668 287.401 264.922 287.798 268.202 288.182L268.434 286.195ZM250.741 283.968C247.45 283.523 244.188 283.066 240.955 282.596L240.667 284.575C243.907 285.046 247.176 285.505 250.473 285.95L250.741 283.968ZM233.25 281.444C229.917 280.931 226.615 280.404 223.345 279.864L223.019 281.838C226.296 282.379 229.606 282.906 232.946 283.42L233.25 281.444ZM215.539 278.54C212.311 277.977 209.114 277.401 205.951 276.812L205.585 278.779C208.756 279.369 211.96 279.946 215.196 280.51L215.539 278.54ZM198.04 275.301C194.772 274.66 191.542 274.005 188.347 273.337L187.938 275.295C191.14 275.964 194.379 276.621 197.655 277.263L198.04 275.301ZM180.745 271.707C177.437 270.98 174.169 270.239 170.943 269.484L170.487 271.431C173.722 272.188 176.998 272.932 180.316 273.661L180.745 271.707ZM163.281 267.645C160.056 266.851 156.875 266.044 153.738 265.223L153.232 267.158C156.379 267.982 159.569 268.791 162.803 269.587L163.281 267.645ZM146.017 263.152C142.838 262.277 139.706 261.389 136.623 260.487L136.062 262.406C139.155 263.311 142.297 264.203 145.486 265.08L146.017 263.152ZM128.958 258.187C125.765 257.204 122.627 256.206 119.546 255.195L118.922 257.095C122.016 258.111 125.165 259.112 128.37 260.098L128.958 258.187ZM112.108 252.691C108.912 251.587 105.78 250.467 102.712 249.334L102.019 251.21C105.1 252.348 108.245 253.473 111.455 254.581L112.108 252.691ZM95.4762 246.587C92.2936 245.345 89.1868 244.089 86.1565 242.818L85.3829 244.662C88.4292 245.94 91.5517 247.203 94.7494 248.45L95.4762 246.587ZM79.0287 239.739C75.9106 238.352 72.8814 236.95 69.9423 235.534L69.0741 237.335C72.0323 238.761 75.0799 240.172 78.2159 241.567L79.0287 239.739ZM63.007 232.081C59.9605 230.512 57.0222 228.929 54.1934 227.333L53.2103 229.074C56.0625 230.684 59.0234 232.279 62.0916 233.859L63.007 232.081ZM47.4936 223.402C44.5759 221.621 41.7926 219.826 39.1455 218.02L38.018 219.671C40.6948 221.498 43.5067 223.312 46.4517 225.109L47.4936 223.402ZM32.7293 213.417C30.0372 211.384 27.5166 209.34 25.1695 207.287L23.8529 208.793C26.2386 210.879 28.7966 212.954 31.5239 215.013L32.7293 213.417ZM19.3891 201.864C16.9746 199.422 14.807 196.974 12.8893 194.526L11.315 195.76C13.2844 198.273 15.5036 200.778 17.9669 203.27L19.3891 201.864ZM8.44373 188.127C6.67752 185.211 5.27225 182.306 4.23066 179.42L2.34941 180.099C3.44045 183.122 4.90563 186.147 6.73313 189.163L8.44373 188.127ZM2.34554 171.978C2.11544 170.383 2 168.795 2 167.216H0C1.19209e-07 168.893 0.122606 170.576 0.366027 172.264L2.34554 171.978ZM2 167.216C2 165.45 2.04837 163.717 2.14443 162.015L0.147611 161.902C0.0493708 163.642 -1.19209e-07 165.414 0 167.216H2ZM2.96903 154.088C3.46976 150.841 4.1622 147.721 5.04088 144.725L3.1217 144.162C2.21731 147.246 1.50608 150.452 0.992396 153.783L2.96903 154.088ZM7.73363 137.228C9.0269 134.216 10.533 131.342 12.2461 128.602L10.5501 127.542C8.78304 130.369 7.22949 133.333 5.89592 136.439L7.73363 137.228ZM16.7695 122.254C18.8192 119.712 21.0739 117.3 23.5284 115.011L22.1644 113.548C19.6439 115.899 17.3242 118.38 15.2128 120.998L16.7695 122.254ZM29.4431 110.024C32.0054 108.067 34.7372 106.214 37.6345 104.462L36.5995 102.75C33.6444 104.538 30.8523 106.431 28.229 108.435L29.4431 110.024ZM44.5926 100.606C47.4091 99.1755 50.3549 97.824 53.4267 96.5491L52.66 94.7019C49.5442 95.995 46.5519 97.3677 43.6869 98.8229L44.5926 100.606ZM61.0386 93.6354C64.0292 92.5805 67.1225 91.5883 70.3159 90.6568L69.7559 88.7368C66.5293 89.678 63.4008 90.6814 60.3733 91.7493L61.0386 93.6354ZM77.9274 88.5976C81.1729 87.7846 84.5103 87.0274 87.9372 86.3243L87.5352 84.3651C84.0819 85.0737 80.7164 85.8372 77.4414 86.6575L77.9274 88.5976ZM95.5253 84.8806C98.6968 84.3225 101.938 83.8064 105.247 83.3311L104.962 81.3514C101.634 81.8295 98.3719 82.3489 95.1787 82.9109L95.5253 84.8806ZM113.317 82.268C116.559 81.8781 119.861 81.524 123.221 81.2047L123.032 79.2136C119.656 79.5345 116.337 79.8903 113.078 80.2823L113.317 82.268ZM130.99 80.5357C134.268 80.2818 137.598 80.0585 140.978 79.8649L140.864 77.8682C137.471 78.0625 134.128 78.2867 130.835 78.5417L130.99 80.5357ZM149.186 79.457C152.401 79.3208 155.658 79.2096 158.957 79.1227L158.904 77.1234C155.595 77.2106 152.327 77.3221 149.101 77.4588L149.186 79.457ZM166.82 78.9622C170.128 78.9138 173.475 78.8883 176.86 78.885L176.858 76.885C173.464 76.8883 170.108 76.9139 166.791 76.9624L166.82 78.9622ZM185.057 78.9192C188.293 78.949 191.563 78.9978 194.864 79.0651L194.905 77.0655C191.596 76.9981 188.32 76.9492 185.076 76.9193L185.057 78.9192ZM202.729 79.2582C206.03 79.3527 209.362 79.4647 212.724 79.5935L212.801 77.595C209.433 77.4659 206.094 77.3537 202.786 77.259L202.729 79.2582ZM220.849 79.9348C224.145 80.0851 227.468 80.2507 230.818 80.4311L230.926 78.434C227.571 78.2533 224.242 78.0874 220.94 77.9368L220.849 79.9348ZM238.645 80.8765C241.925 81.073 245.23 81.283 248.558 81.506L248.692 79.5104C245.359 79.2872 242.05 79.0769 238.764 78.8801L238.645 80.8765ZM256.591 82.0658C259.957 82.3093 263.345 82.5654 266.756 82.8337L266.913 80.8398C263.498 80.5713 260.105 80.3148 256.736 80.071L256.591 82.0658ZM274.564 83.4655C277.819 83.7362 281.094 84.0175 284.389 84.3089L284.565 82.3167C281.267 82.025 277.989 81.7434 274.729 81.4724L274.564 83.4655ZM292.331 85.0275C295.655 85.3348 298.998 85.652 302.359 85.9786L302.552 83.988C299.188 83.6611 295.843 83.3436 292.515 83.036L292.331 85.0275ZM310.459 86.7802C313.702 87.1069 316.961 87.4418 320.235 87.7847L320.444 85.7956C317.167 85.4524 313.905 85.1172 310.659 84.7903L310.459 86.7802ZM328.099 88.6201C331.387 88.9744 334.691 89.3363 338.009 89.7055L338.23 87.7178C334.91 87.3483 331.604 86.9862 328.313 86.6317L328.099 88.6201ZM346 90.6054C349.342 90.986 352.697 91.3737 356.067 91.768L356.299 89.7815C352.928 89.387 349.57 88.9991 346.227 88.6182L346 90.6054ZM363.902 92.6939C367.162 93.0828 370.435 93.4776 373.72 93.8779L373.962 91.8926C370.675 91.4921 367.401 91.0971 364.139 90.708L363.902 92.6939ZM381.625 94.8495C384.928 95.2586 388.243 95.6731 391.569 96.0926L391.82 94.1084C388.492 93.6886 385.176 93.274 381.871 92.8646L381.625 94.8495ZM399.573 97.1091C402.865 97.5298 406.167 97.9552 409.48 98.385L409.737 96.4016C406.424 95.9717 403.12 95.5461 399.827 95.1252L399.573 97.1091ZM417.322 99.408C420.598 99.8376 423.883 100.271 427.177 100.708L427.44 98.7257C424.145 98.2883 420.859 97.8547 417.582 97.425L417.322 99.408ZM435.099 101.765C438.408 102.208 441.725 102.654 445.05 103.104L445.318 101.122C441.992 100.672 438.674 100.225 435.365 99.7823L435.099 101.765ZM453.047 104.189C456.31 104.633 459.58 105.08 462.858 105.53L463.129 103.548C459.851 103.098 456.58 102.651 453.317 102.207L453.047 104.189ZM470.725 106.612C474.009 107.065 477.3 107.52 480.598 107.977L480.873 105.996C477.574 105.539 474.283 105.084 470.999 104.631L470.725 106.612ZM488.525 109.079C491.833 109.539 495.148 110.001 498.468 110.465L498.745 108.485C495.424 108.021 492.109 107.558 488.801 107.098L488.525 109.079ZM506.404 111.576C509.674 112.034 512.95 112.493 516.231 112.954L516.509 110.973C513.228 110.513 509.952 110.053 506.682 109.595L506.404 111.576ZM524.115 114.061C527.405 114.523 530.699 114.986 533.997 115.45L534.276 113.469C530.977 113.006 527.683 112.543 524.394 112.08L524.115 114.061ZM541.923 116.564C545.228 117.029 548.539 117.494 551.853 117.959L552.131 115.979C548.817 115.513 545.507 115.048 542.201 114.584L541.923 116.564ZM559.759 119.069C563.04 119.529 566.324 119.989 569.612 120.448L569.889 118.468C566.602 118.008 563.317 117.548 560.036 117.088L559.759 119.069ZM577.51 121.552C580.803 122.011 584.099 122.47 587.398 122.928L587.673 120.947C584.374 120.489 581.079 120.03 577.786 119.571L577.51 121.552ZM595.32 124.027C598.622 124.484 601.928 124.94 605.235 125.395L605.508 123.414C602.201 122.959 598.896 122.503 595.594 122.046L595.32 124.027ZM613.14 126.48C616.432 126.931 619.725 127.38 623.019 127.828L623.289 125.847C619.995 125.399 616.702 124.949 613.412 124.499L613.14 126.48ZM630.929 128.9C634.226 129.346 637.524 129.789 640.823 130.231L641.088 128.249C637.79 127.807 634.493 127.364 631.197 126.918L630.929 128.9ZM648.742 131.288C652.042 131.726 655.343 132.163 658.644 132.597L658.905 130.614C655.604 130.18 652.305 129.743 649.005 129.305L648.742 131.288ZM666.567 133.634C669.869 134.064 673.171 134.492 676.472 134.917L676.727 132.933C673.427 132.508 670.126 132.081 666.826 131.651L666.567 133.634ZM684.395 135.931C687.695 136.352 690.996 136.769 694.295 137.183L694.544 135.199C691.246 134.785 687.947 134.367 684.647 133.947L684.395 135.931ZM702.212 138.171C705.512 138.58 708.81 138.986 712.107 139.388L712.35 137.403C709.054 137.001 705.757 136.595 702.458 136.186L702.212 138.171ZM720.06 140.351C723.372 140.75 726.682 141.144 729.99 141.534L730.225 139.548C726.918 139.158 723.609 138.764 720.298 138.366L720.06 140.351ZM737.927 142.463C741.232 142.847 744.534 143.226 747.835 143.601L748.06 141.614C744.762 141.239 741.461 140.86 738.157 140.477L737.927 142.463ZM755.75 144.492C759.055 144.861 762.357 145.224 765.656 145.583L765.872 143.595C762.575 143.236 759.275 142.873 755.971 142.504L755.75 144.492ZM773.636 146.442C776.959 146.796 780.278 147.144 783.593 147.487L783.798 145.498C780.485 145.155 777.168 144.807 773.848 144.453L773.636 146.442ZM791.541 148.3C794.85 148.634 798.154 148.962 801.454 149.284L801.649 147.294C798.351 146.971 795.049 146.643 791.742 146.31L791.541 148.3ZM809.366 150.046C812.685 150.361 815.999 150.67 819.308 150.972L819.49 148.981C816.183 148.679 812.872 148.37 809.555 148.055L809.366 150.046ZM827.314 151.692C830.646 151.986 833.972 152.274 837.292 152.554L837.46 150.561C834.143 150.281 830.819 149.994 827.49 149.7L827.314 151.692ZM845.248 153.214C848.559 153.483 851.863 153.744 855.16 153.998L855.314 152.004C852.019 151.75 848.718 151.489 845.41 151.22L845.248 153.214ZM863.062 154.593C866.408 154.839 869.747 155.077 873.078 155.307L873.216 153.312C869.887 153.082 866.551 152.845 863.208 152.599L863.062 154.593ZM881.102 155.845C884.439 156.062 887.769 156.271 891.09 156.471L891.21 154.474C887.892 154.275 884.566 154.066 881.232 153.849L881.102 155.845ZM899.044 156.933C902.352 157.118 905.651 157.294 908.941 157.46L909.043 155.463C905.756 155.297 902.46 155.121 899.156 154.936L899.044 156.933ZM916.876 157.845C920.248 158 923.611 158.146 926.964 158.281L927.045 156.282C923.696 156.147 920.337 156.002 916.968 155.847L916.876 157.845ZM934.991 158.584C938.327 158.702 941.653 158.809 944.968 158.904L945.026 156.905C941.715 156.81 938.394 156.703 935.062 156.585L934.991 158.584ZM952.902 159.113C956.199 159.191 959.484 159.258 962.758 159.312L962.792 157.313C959.522 157.258 956.241 157.191 952.949 157.114L952.902 159.113ZM970.859 159.425C974.23 159.461 977.589 159.485 980.934 159.496L980.94 157.496C977.6 157.485 974.247 157.461 970.88 157.425L970.859 159.425ZM988.936 159.496C992.259 159.486 995.568 159.462 998.864 159.424L998.841 157.424C995.551 157.462 992.247 157.486 988.929 157.496L988.936 159.496ZM1006.74 159.307C1010.11 159.246 1013.47 159.169 1016.8 159.077L1016.75 157.078C1013.42 157.17 1010.07 157.246 1006.71 157.308L1006.74 159.307ZM1024.88 158.824C1028.23 158.706 1031.57 158.572 1034.89 158.422L1034.8 156.424C1031.48 156.574 1028.16 156.708 1024.81 156.826L1024.88 158.824ZM1042.82 158.03C1046.11 157.853 1049.38 157.66 1052.63 157.449L1052.51 155.454C1049.26 155.663 1045.99 155.856 1042.71 156.033L1042.82 158.03ZM1060.7 156.89C1064.08 156.64 1067.44 156.37 1070.78 156.081L1070.61 154.089C1067.28 154.377 1063.92 154.646 1060.55 154.896L1060.7 156.89ZM1078.75 155.35C1082.06 155.029 1085.34 154.689 1088.6 154.328L1088.38 152.34C1085.13 152.7 1081.85 153.039 1078.56 153.359L1078.75 155.35ZM1096.38 153.423C1099.77 153.009 1103.14 152.572 1106.48 152.112L1106.21 150.131C1102.88 150.59 1099.52 151.025 1096.14 151.438L1096.38 153.423ZM1114.47 150.959C1117.78 150.46 1121.06 149.936 1124.31 149.389L1123.98 147.416C1120.74 147.962 1117.47 148.484 1114.17 148.982L1114.47 150.959ZM1132.07 148.026C1135.37 147.422 1138.65 146.79 1141.89 146.132L1141.49 144.172C1138.26 144.827 1135 145.456 1131.7 146.059L1132.07 148.026ZM1149.84 144.451C1153.13 143.728 1156.38 142.976 1159.6 142.193L1159.13 140.25C1155.92 141.029 1152.68 141.778 1149.41 142.498L1149.84 144.451ZM1167.27 140.259C1170.49 139.414 1173.67 138.538 1176.82 137.63L1176.27 135.708C1173.14 136.612 1169.96 137.484 1166.76 138.324L1167.27 140.259ZM1184.64 135.289C1187.86 134.285 1191.04 133.246 1194.18 132.17L1193.54 130.278C1190.41 131.347 1187.25 132.381 1184.04 133.379L1184.64 135.289ZM1201.64 129.519C1204.77 128.365 1207.86 127.174 1210.9 125.943L1210.14 124.089C1207.12 125.312 1204.06 126.496 1200.95 127.643L1201.64 129.519ZM1218.41 122.782C1221.5 121.43 1224.54 120.036 1227.53 118.597L1226.66 116.795C1223.69 118.223 1220.67 119.607 1217.6 120.949L1218.41 122.782ZM1234.6 115.06C1236.05 114.306 1237.5 113.54 1238.92 112.762L1237.97 111.006C1236.55 111.777 1235.12 112.537 1233.68 113.285L1234.6 115.06ZM1238.92 112.762C1240.36 111.979 1241.76 111.128 1243.11 110.216L1241.99 108.56C1240.69 109.436 1239.35 110.253 1237.97 111.006L1238.92 112.762ZM1249.24 105.337C1251.64 103.091 1253.81 100.62 1255.69 97.9691L1254.06 96.8136C1252.26 99.3504 1250.18 101.719 1247.87 103.875L1249.24 105.337ZM1259.65 91.1912C1261.05 88.2207 1262.1 85.0988 1262.76 81.8728L1260.8 81.4748C1260.18 84.5372 1259.18 87.5071 1257.84 90.3395L1259.65 91.1912ZM1263.54 74.0356C1263.53 72.4092 1263.42 70.7682 1263.2 69.1179L1261.22 69.3802C1261.43 70.9452 1261.53 72.5008 1261.54 74.0422L1263.54 74.0356ZM1263.2 69.1179C1262.98 67.4065 1262.7 65.734 1262.38 64.0994L1260.42 64.4843C1260.73 66.0772 1261 67.7089 1261.22 69.3802L1263.2 69.1179ZM1260.42 56.322C1259.4 53.0407 1258.17 49.9342 1256.73 46.9948L1254.93 47.8721C1256.32 50.7183 1257.52 53.7304 1258.51 56.9174L1260.42 56.322ZM1252.75 40.0099C1250.89 37.1937 1248.82 34.5594 1246.55 32.0977L1245.08 33.4526C1247.27 35.8373 1249.28 38.387 1251.08 41.1116L1252.75 40.0099ZM1240.75 26.5267C1238.24 24.3857 1235.55 22.4027 1232.69 20.568L1231.61 22.2501C1234.39 24.0394 1237.01 25.9696 1239.45 28.0491L1240.75 26.5267ZM1225.76 16.5556C1222.86 15.0483 1219.82 13.6643 1216.67 12.3958L1215.92 14.2515C1219.02 15.4978 1222 16.855 1224.84 18.3301L1225.76 16.5556ZM1209.16 9.66571C1206.06 8.64975 1202.86 7.7276 1199.58 6.89307L1199.09 8.83159C1202.33 9.65578 1205.48 10.5654 1208.54 11.5661L1209.16 9.66571ZM1191.8 5.1138C1188.61 4.45766 1185.34 3.87359 1182 3.35661L1181.7 5.33302C1185 5.84538 1188.24 6.42379 1191.4 7.07292L1191.8 5.1138ZM1174.1 2.27036C1170.86 1.87794 1167.56 1.54184 1164.21 1.25795L1164.04 3.25081C1167.37 3.53282 1170.64 3.86653 1173.86 4.2559L1174.1 2.27036ZM1156.26 0.6861C1153 0.49084 1149.69 0.34008 1146.34 0.230267L1146.28 2.22919C1149.61 2.33845 1152.9 2.48841 1156.14 2.68253L1156.26 0.6861ZM1138.41 0.0458044C1135.13 -0.000330567 1131.82 -0.0109093 1128.48 0.0108885L1128.5 2.01085C1131.82 1.98913 1135.12 1.99968 1138.39 2.04561L1138.41 0.0458044ZM1120.53 0.121445C1117.24 0.190506 1113.93 0.287887 1110.6 0.410661L1110.67 2.4093C1113.99 2.28689 1117.29 2.18983 1120.57 2.121L1120.53 0.121445ZM1102.68 0.747685C1099.39 0.905571 1096.09 1.08564 1092.77 1.28514L1092.89 3.28153C1096.2 3.08248 1099.5 2.90286 1102.78 2.74538L1102.68 0.747685ZM1084.85 1.79653C1081.56 2.02271 1078.26 2.26576 1074.95 2.52302L1075.11 4.51698C1078.41 4.26015 1081.7 4.01756 1084.99 3.79183L1084.85 1.79653ZM1067.05 3.16403C1063.75 3.4411 1060.46 3.73017 1057.17 4.02861L1057.35 6.02044C1060.64 5.72235 1063.93 5.43366 1067.22 5.15699L1067.05 3.16403ZM1049.27 4.76212C1045.97 5.07483 1042.68 5.39486 1039.4 5.71956L1039.6 7.70984C1042.88 7.38536 1046.16 7.06559 1049.46 6.75317L1049.27 4.76212ZM1031.51 6.51024C1028.21 6.84465 1024.92 7.18167 1021.64 7.51854L1021.85 9.50804C1025.12 9.17122 1028.41 8.83432 1031.71 8.50006L1031.51 6.51024ZM1013.76 8.33213C1010.45 8.67327 1007.16 9.01196 1003.9 9.34534L1004.1 11.335C1007.37 11.0015 1010.65 10.6627 1013.96 10.3216L1013.76 8.33213ZM996.026 10.1432C992.707 10.4759 989.416 10.8005 986.159 11.1138L986.35 13.1046C989.611 12.791 992.904 12.4662 996.226 12.1332L996.026 10.1432ZM978.256 11.8561C976.614 12.0063 974.982 12.1528 973.36 12.2952L973.535 14.2875C975.159 14.1449 976.794 13.9982 978.438 13.8478L978.256 11.8561Z" fill="#EAD4BB"/>
</svg>
