<svg width="659" height="336" viewBox="0 0 659 336" fill="none" xmlns="http://www.w3.org/2000/svg">
<path d="M1.49996 85.8214L0.500081 85.8056L1.49996 85.8214ZM230 281.822L230.141 282.812L230 281.822ZM655.264 335.793C655.801 335.924 656.342 335.594 656.472 335.057L658.592 326.31C658.722 325.774 658.392 325.233 657.856 325.103C657.319 324.973 656.778 325.303 656.648 325.839L654.764 333.614L646.989 331.73C646.452 331.599 645.911 331.929 645.781 332.466C645.651 333.003 645.981 333.543 646.518 333.673L655.264 335.793ZM330.589 4.00396C328.957 3.85821 327.311 3.71716 325.651 3.58089L325.487 5.57418C327.142 5.71007 328.784 5.85071 330.411 5.99604L330.589 4.00396ZM317.623 2.96677C314.335 2.73323 311 2.51802 307.623 2.32167L307.507 4.3183C310.876 4.51416 314.202 4.72883 317.481 4.96174L317.623 2.96677ZM299.648 1.89698C296.343 1.73693 293.003 1.59471 289.631 1.4708L289.558 3.46945C292.921 3.59308 296.254 3.73497 299.551 3.89464L299.648 1.89698ZM281.595 1.21196C278.288 1.12034 274.955 1.04623 271.6 0.990068L271.566 2.98979C274.914 3.04582 278.24 3.11978 281.539 3.21119L281.595 1.21196ZM263.585 0.890625C260.258 0.863696 256.913 0.854417 253.553 0.863213L253.558 2.86321C256.911 2.85443 260.249 2.86369 263.569 2.89056L263.585 0.890625ZM245.551 0.918244C242.222 0.955322 238.881 1.01024 235.532 1.08341L235.576 3.08294C238.918 3.00992 242.251 2.95512 245.573 2.91812L245.551 0.918244ZM227.512 1.29331C224.181 1.39494 220.844 1.51482 217.506 1.65336L217.588 3.65164C220.92 3.51341 224.249 3.39379 227.573 3.29238L227.512 1.29331ZM209.497 2.02155C206.161 2.18993 202.827 2.37724 199.496 2.58385L199.62 4.58001C202.943 4.37388 206.27 4.18701 209.597 4.01901L209.497 2.02155ZM191.494 3.11824C188.155 3.35723 184.824 3.61603 181.502 3.89506L181.669 5.88804C184.983 5.60972 188.306 5.35155 191.636 5.11314L191.494 3.11824ZM173.527 4.60608C170.185 4.92141 166.857 5.25776 163.546 5.61555L163.761 7.60397C167.063 7.24718 170.382 6.91174 173.714 6.59724L173.527 4.60608ZM155.58 6.52179C152.251 6.91993 148.942 7.34046 145.657 7.78383L145.925 9.76586C149.199 9.32388 152.498 8.90462 155.818 8.50764L155.58 6.52179ZM137.692 8.91091C134.36 9.40462 131.057 9.92278 127.785 10.4659L128.113 12.4389C131.373 11.8977 134.665 11.3814 137.985 10.8893L137.692 8.91091ZM119.916 11.8323C116.587 12.4363 113.296 13.0674 110.047 13.7262L110.444 15.6863C113.679 15.0303 116.957 14.4018 120.273 13.8001L119.916 11.8323ZM102.179 15.3944C98.8745 16.1269 95.6191 16.8898 92.418 17.6837L92.8994 19.6248C96.0836 18.8352 99.3228 18.0761 102.612 17.3471L102.179 15.3944ZM84.6831 19.692C81.3942 20.5858 78.1703 21.5149 75.0176 22.4801L75.603 24.3925C78.7345 23.4339 81.9379 22.5106 85.2076 21.622L84.6831 19.692ZM67.343 24.9496C64.1029 26.0455 60.9492 27.1835 57.8892 28.3643L58.6093 30.2302C61.6413 29.0601 64.7685 27.9317 67.9838 26.8442L67.343 24.9496ZM50.4506 31.401C47.2882 32.7677 44.2439 34.1866 41.3274 35.6589L42.2287 37.4443C45.107 35.9912 48.1152 34.5891 51.244 33.2369L50.4506 31.401ZM34.2521 39.484C31.2396 41.2311 28.3955 43.047 25.7336 44.9337L26.8901 46.5654C29.4979 44.7171 32.2904 42.9337 35.2554 41.2141L34.2521 39.484ZM19.3481 49.9C16.6862 52.1825 14.273 54.56 12.1299 57.0355L13.642 58.3446C15.7138 55.9514 18.0553 53.6432 20.65 51.4183L19.3481 49.9ZM7.26669 63.5581C5.41712 66.4893 3.92251 69.5434 2.81261 72.723L4.70088 73.3821C5.75762 70.3548 7.18403 67.437 8.9581 64.6254L7.26669 63.5581ZM0.892517 80.6713C0.659403 82.353 0.527574 84.0644 0.500081 85.8056L2.49983 85.8372C2.52605 84.1764 2.65175 82.5462 2.87358 80.9459L0.892517 80.6713ZM0.500081 85.8056C0.473723 87.475 0.543111 89.1417 0.704323 90.8051L2.695 90.6122C2.54086 89.0217 2.47468 87.43 2.49983 85.8372L0.500081 85.8056ZM2.13676 98.6495C2.97291 101.781 4.11624 104.897 5.53885 107.993L7.35621 107.158C5.97628 104.155 4.87331 101.146 4.06909 98.1336L2.13676 98.6495ZM9.25999 115.029C10.9063 117.784 12.7621 120.524 14.808 123.247L16.407 122.045C14.399 119.373 12.5834 116.692 10.9769 114.003L9.25999 115.029ZM19.7888 129.419C21.8756 131.84 24.1048 134.247 26.4631 136.639L27.8874 135.235C25.5575 132.872 23.3588 130.497 21.3037 128.113L19.7888 129.419ZM32.1153 142.121C34.481 144.32 36.9496 146.506 39.5104 148.677L40.8039 147.152C38.2644 144.998 35.8187 142.833 33.4769 140.656L32.1153 142.121ZM45.5836 153.667C48.1063 155.678 50.7028 157.676 53.3646 159.661L54.56 158.057C51.9143 156.085 49.3349 154.1 46.8303 152.103L45.5836 153.667ZM59.7613 164.317C62.3959 166.191 65.0841 168.053 67.8183 169.901L68.9382 168.244C66.2163 166.404 63.5414 164.552 60.9206 162.688L59.7613 164.317ZM74.3669 174.246C77.0991 176.026 79.8696 177.793 82.6715 179.547L83.7325 177.851C80.9403 176.104 78.1801 174.343 75.4588 172.57L74.3669 174.246ZM89.3352 183.656C92.1249 185.352 94.9396 187.034 97.7727 188.702L98.7873 186.979C95.9618 185.315 93.1553 183.638 90.3742 181.947L89.3352 183.656ZM104.558 192.65C107.394 194.282 110.243 195.898 113.099 197.5L114.077 195.755C111.227 194.157 108.385 192.544 105.555 190.916L104.558 192.65ZM119.958 201.31C122.834 202.894 125.712 204.462 128.585 206.013L129.535 204.253C126.667 202.704 123.794 201.139 120.923 199.558L119.958 201.31ZM135.495 209.717C138.4 211.265 141.295 212.794 144.173 214.306L145.103 212.535C142.228 211.025 139.336 209.497 136.435 207.952L135.495 209.717ZM151.142 217.948C154.058 219.465 156.951 220.963 159.813 222.441L160.731 220.664C157.87 219.187 154.979 217.69 152.065 216.174L151.142 217.948ZM166.835 226.057C169.786 227.575 172.697 229.069 175.558 230.539L176.472 228.76C173.61 227.289 170.7 225.796 167.75 224.279L166.835 226.057ZM182.491 234.104C185.476 235.641 188.397 237.15 191.242 238.63L192.165 236.855C189.316 235.374 186.393 233.864 183.407 232.326L182.491 234.104ZM198.201 242.269C201.18 243.838 204.058 245.37 206.822 246.864L207.773 245.105C205.002 243.606 202.117 242.071 199.132 240.499L198.201 242.269ZM213.642 250.606C216.649 252.285 219.481 253.908 222.115 255.475L223.137 253.756C220.484 252.178 217.636 250.545 214.616 248.86L213.642 250.606ZM228.789 259.601C231.874 261.599 234.541 263.479 236.741 265.237L237.99 263.674C235.722 261.862 232.996 259.942 229.876 257.923L228.789 259.601ZM242.176 270.52C243.381 272.125 243.846 273.426 243.776 274.463C243.711 275.442 243.148 276.424 241.709 277.382L242.816 279.047C244.591 277.867 245.652 276.387 245.772 274.597C245.888 272.864 245.103 271.086 243.775 269.319L242.176 270.52ZM234.825 279.936C233.36 280.268 231.707 280.567 229.858 280.832L230.141 282.812C232.033 282.541 233.74 282.233 235.267 281.887L234.825 279.936ZM229.858 280.832C227.966 281.102 226.312 281.195 224.884 281.132L224.796 283.13C226.374 283.2 228.156 283.095 230.141 282.812L229.858 280.832ZM218.611 278.65C217.326 276.917 217.219 274.091 218.695 270.129L216.821 269.431C215.275 273.58 215.097 277.269 217.005 279.841L218.611 278.65ZM222.275 263.163C223.838 260.689 225.78 258.035 228.084 255.244L226.542 253.971C224.195 256.814 222.2 259.537 220.584 262.095L222.275 263.163ZM233.287 249.368C235.416 247.11 237.746 244.792 240.267 242.434L238.901 240.973C236.351 243.357 233.991 245.705 231.831 247.996L233.287 249.368ZM246.148 237.165C248.58 235.073 251.151 232.962 253.855 230.846L252.622 229.271C249.895 231.406 247.3 233.536 244.844 235.648L246.148 237.165ZM260.144 226.09C262.743 224.191 265.445 222.295 268.244 220.411L267.127 218.752C264.307 220.65 261.585 222.561 258.964 224.476L260.144 226.09ZM274.959 216.038C277.683 214.321 280.487 212.622 283.367 210.947L282.362 209.218C279.461 210.905 276.637 212.617 273.893 214.346L274.959 216.038ZM290.333 207.027C293.182 205.476 296.097 203.953 299.075 202.464L298.18 200.675C295.181 202.175 292.246 203.709 289.377 205.27L290.333 207.027ZM306.239 199.005C309.197 197.627 312.211 196.285 315.278 194.984L314.497 193.143C311.409 194.453 308.373 195.804 305.395 197.192L306.239 199.005ZM322.628 191.988C325.676 190.796 328.772 189.646 331.913 188.544L331.251 186.657C328.087 187.767 324.97 188.925 321.9 190.126L322.628 191.988ZM339.434 186.027C342.557 185.032 345.72 184.087 348.922 183.195L348.385 181.268C345.159 182.167 341.973 183.119 338.827 184.122L339.434 186.027ZM356.594 181.181C359.777 180.396 362.994 179.667 366.244 178.996L365.84 177.038C362.565 177.713 359.322 178.449 356.115 179.239L356.594 181.181ZM374.042 177.514C377.27 176.953 380.527 176.452 383.811 176.015L383.547 174.033C380.236 174.473 376.953 174.978 373.7 175.544L374.042 177.514ZM391.707 175.095C394.961 174.769 398.24 174.508 401.542 174.315L401.425 172.318C398.096 172.513 394.789 172.776 391.508 173.104L391.707 175.095ZM409.505 173.985C412.766 173.905 416.047 173.893 419.346 173.953L419.383 171.953C416.054 171.893 412.745 171.905 409.456 171.985L409.505 173.985ZM427.299 174.236C430.559 174.409 433.835 174.653 437.125 174.972L437.318 172.982C433.998 172.66 430.694 172.413 427.405 172.239L427.299 174.236ZM445.01 175.878C448.253 176.309 451.508 176.814 454.775 177.397L455.126 175.428C451.83 174.84 448.545 174.33 445.274 173.896L445.01 175.878ZM462.531 178.922C465.744 179.613 468.966 180.381 472.197 181.228L472.704 179.293C469.445 178.439 466.194 177.664 462.952 176.967L462.531 178.922ZM479.76 183.353C482.917 184.3 486.08 185.325 489.249 186.429L489.907 184.54C486.711 183.426 483.52 182.393 480.335 181.438L479.76 183.353ZM496.612 189.138C499.66 190.319 502.711 191.575 505.766 192.909L506.566 191.077C503.486 189.731 500.409 188.464 497.335 187.273L496.612 189.138ZM513.028 196.229C515.942 197.621 518.858 199.085 521.775 200.625L522.708 198.856C519.768 197.304 516.828 195.828 513.889 194.424L513.028 196.229ZM528.775 204.464C531.603 206.074 534.43 207.756 537.257 209.512L538.312 207.813C535.464 206.044 532.615 204.349 529.764 202.726L528.775 204.464ZM543.879 213.764C546.636 215.593 549.392 217.494 552.145 219.468L553.311 217.843C550.538 215.854 547.762 213.94 544.984 212.097L543.879 213.764ZM558.434 224.112C561.02 226.076 563.604 228.108 566.183 230.207L567.445 228.656C564.849 226.543 562.248 224.497 559.644 222.519L558.434 224.112ZM572.366 235.377C574.814 237.479 577.258 239.644 579.698 241.873L581.047 240.396C578.592 238.154 576.133 235.975 573.669 233.859L572.366 235.377ZM585.448 247.253C587.84 249.545 590.227 251.9 592.608 254.318L594.033 252.915C591.638 250.483 589.237 248.114 586.831 245.809L585.448 247.253ZM598.078 259.998C600.288 262.344 602.494 264.746 604.693 267.206L606.184 265.873C603.973 263.4 601.756 260.985 599.533 258.626L598.078 259.998ZM609.961 273.221C612.119 275.736 614.272 278.309 616.418 280.939L617.968 279.674C615.811 277.032 613.648 274.447 611.479 271.918L609.961 273.221ZM621.26 286.984C623.273 289.544 625.279 292.156 627.28 294.82L628.879 293.619C626.87 290.943 624.854 288.32 622.832 285.748L621.26 286.984ZM632.067 301.315C633.986 303.966 635.899 306.667 637.805 309.417L639.449 308.278C637.535 305.516 635.615 302.805 633.687 300.142L632.067 301.315ZM642.188 315.848C644.009 318.565 645.823 321.328 647.631 324.139L649.313 323.057C647.498 320.236 645.677 317.462 643.849 314.735L642.188 315.848ZM651.956 330.976C652.855 332.419 653.751 333.875 654.646 335.342L656.354 334.301C655.456 332.828 654.556 331.368 653.654 329.919L651.956 330.976Z" fill="#EAD4BB"/>
</svg>
