<svg width="505" height="554" viewBox="0 0 505 554" fill="none" xmlns="http://www.w3.org/2000/svg">
<path d="M504.707 546.707C505.098 546.317 505.098 545.683 504.707 545.293L498.343 538.929C497.953 538.538 497.319 538.538 496.929 538.929C496.538 539.319 496.538 539.953 496.929 540.343L502.586 546L496.929 551.657C496.538 552.047 496.538 552.681 496.929 553.071C497.319 553.462 497.953 553.462 498.343 553.071L504.707 546.707ZM0 0V4.95885H2V0H0ZM0 12.893V22.8107H2V12.893H0ZM0 30.7449V40.6626H2V30.7449H0ZM0 48.5967V58.5144H2V48.5967H0ZM0 66.4486V76.3663H2V66.4486H0ZM0 84.3004V94.2181H2V84.3004H0ZM0 102.152V112.07H2V102.152H0ZM0 120.004V129.922H2V120.004H0ZM0 137.856V147.774H2V137.856H0ZM0 155.708V165.626H2V155.708H0ZM0 173.56V183.477H2V173.56H0ZM0 191.412V201.329H2V191.412H0ZM0 209.263V219.181H2V209.263H0ZM0 227.115V237.033H2V227.115H0ZM0 244.967V254.885H2V244.967H0ZM0 262.819V272.737H2V262.819H0ZM0 280.671V290.588H2V280.671H0ZM0 298.523V308.44H2V298.523H0ZM0 316.374V326.292H2V316.374H0ZM0 334.226V344.144H2V334.226H0ZM0 352.078V361.996H2V352.078H0ZM0 369.93V379.848H2V369.93H0ZM0 387.782V397.699H2V387.782H0ZM0 405.634V415.551H2V405.634H0ZM0 423.485V433.403H2V423.485H0ZM0 441.337V451.255H2V441.337H0ZM0 459.189V469.107H2V459.189H0ZM0 477.041V482H2V477.041H0ZM0 482C0 483.589 0.0570613 485.166 0.16927 486.727L2.16412 486.583C2.05534 485.07 2 483.541 2 482H0ZM1.14734 494.221C1.74235 497.349 2.56142 500.397 3.58721 503.348L5.47635 502.691C4.48238 499.832 3.6887 496.878 3.11209 493.848L1.14734 494.221ZM6.4826 510.33C7.86397 513.179 9.44704 515.91 11.2132 518.508L12.867 517.383C11.1551 514.865 9.62079 512.218 8.28211 509.458L6.4826 510.33ZM15.8193 524.502C17.8815 526.886 20.1141 529.119 22.4983 531.181L23.8067 529.668C21.4954 527.669 19.3311 525.505 17.332 523.193L15.8193 524.502ZM28.4925 535.787C31.0896 537.553 33.8215 539.136 36.6696 540.517L37.5424 538.718C34.7823 537.379 32.1346 535.845 29.6172 534.133L28.4925 535.787ZM43.652 543.413C46.6033 544.439 49.6513 545.258 52.7786 545.853L53.1524 543.888C50.1219 543.311 47.1684 542.518 44.3086 541.524L43.652 543.413ZM60.2734 546.831C61.8345 546.943 63.4107 547 65 547V545C63.4585 545 61.9302 544.945 60.4168 544.836L60.2734 546.831ZM65 547H70.081V545H65V547ZM78.2106 547H88.3727V545H78.2106V547ZM96.5023 547H106.664V545H96.5023V547ZM114.794 547H124.956V545H114.794V547ZM133.086 547H143.248V545H133.086V547ZM151.377 547H161.539V545H151.377V547ZM169.669 547H179.831V545H169.669V547ZM187.961 547H198.123V545H187.961V547ZM206.252 547H216.414V545H206.252V547ZM224.544 547H234.706V545H224.544V547ZM242.836 547H252.998V545H242.836V547ZM261.127 547H271.289V545H261.127V547ZM279.419 547H289.581V545H279.419V547ZM297.711 547H307.873V545H297.711V547ZM316.002 547H326.164V545H316.002V547ZM334.294 547H344.456V545H334.294V547ZM352.586 547H362.748V545H352.586V547ZM370.877 547H381.039V545H370.877V547ZM389.169 547H399.331V545H389.169V547ZM407.461 547H417.623V545H407.461V547ZM425.752 547H435.914V545H425.752V547ZM444.044 547H454.206V545H444.044V547ZM462.336 547H472.498V545H462.336V547ZM480.627 547H490.789V545H480.627V547ZM498.919 547H504V545H498.919V547Z" fill="#EAD4BB"/>
</svg>
