<svg width="116" height="48" viewBox="0 0 116 48" fill="none" xmlns="http://www.w3.org/2000/svg">
<g clip-path="url(#clip0_445_1400)">
<path d="M8.29595 18.7255C8.29595 17.4814 9.31995 17.0029 11.016 17.0029C13.448 17.0029 16.52 17.7366 18.952 19.0445V11.5479C16.296 10.4952 13.672 10.0805 11.016 10.0805C4.51995 10.0805 0.199951 13.4619 0.199951 19.1083C0.199951 27.9128 12.36 26.5092 12.36 30.3053C12.36 31.7727 11.08 32.2512 9.28795 32.2512C6.63195 32.2512 3.23995 31.1666 0.551951 29.6992V37.2915C3.52795 38.5675 6.53595 39.1098 9.28795 39.1098C15.944 39.1098 20.52 35.8241 20.52 30.1139C20.488 20.6076 8.29595 22.2983 8.29595 18.7255ZM29.928 3.70044L22.12 5.35925L22.088 30.9114C22.088 35.6327 25.64 39.1098 30.376 39.1098C33 39.1098 34.9199 38.6313 35.9759 38.0571V31.5813C34.9519 31.996 29.896 33.4634 29.896 28.7422V17.4176H35.9759V10.6228H29.896L29.928 3.70044ZM45.9279 12.9834L45.416 10.6228H38.504V38.5356H46.504V19.6187C48.392 17.1624 51.592 17.609 52.584 17.9599V10.6228C51.56 10.24 47.8159 9.53819 45.9279 12.9834ZM54.5359 10.6228H62.5679V38.5356H54.5359V10.6228ZM54.5359 8.19838L62.5679 6.47576V0L54.5359 1.69072V8.19838ZM79.272 10.0805C76.136 10.0805 74.1199 11.5479 72.9999 12.5687L72.5839 10.5909H65.544V47.7867L73.5439 46.096L73.576 37.0682C74.728 37.8976 76.4239 39.0779 79.2399 39.0779C84.9679 39.0779 90.1839 34.4842 90.1839 24.3718C90.1519 15.1207 84.872 10.0805 79.272 10.0805ZM77.3519 32.0598C75.4639 32.0598 74.344 31.3899 73.576 30.5605L73.5439 18.7255C74.3759 17.8004 75.5279 17.1624 77.3519 17.1624C80.2639 17.1624 82.2799 20.4162 82.2799 24.5951C82.2799 28.8698 80.2959 32.0598 77.3519 32.0598ZM115.4 24.6908C115.4 16.5244 111.432 10.0805 103.848 10.0805C96.2319 10.0805 91.6239 16.5244 91.6239 24.627C91.6239 34.229 97.0639 39.0779 104.872 39.0779C108.68 39.0779 111.56 38.2166 113.736 37.0044V30.6243C111.56 31.7089 109.064 32.3788 105.896 32.3788C102.792 32.3788 100.04 31.2942 99.6879 27.53H115.336C115.336 27.1153 115.4 25.4564 115.4 24.6908ZM99.5919 21.6603C99.5919 18.0556 101.8 16.5563 103.816 16.5563C105.768 16.5563 107.848 18.0556 107.848 21.6603H99.5919Z" fill="#8C8880"/>
</g>
<defs>
<clipPath id="clip0_445_1400">
<rect width="115.2" height="48" fill="white" transform="translate(0.199951)"/>
</clipPath>
</defs>
</svg>
